<!-- Generated by IcoMoon.io -->
<svg version="1.1" xmlns="http://www.w3.org/2000/svg" width="32" height="32" viewBox="0 0 32 32">
<title>12</title>
<path fill="#000" opacity="0.947" d="M14.656 1.969c0.875-0.010 1.75 0 2.625 0.031 0.547 0.048 1.089 0.132 1.625 0.25 0.526 0.364 0.568 0.781 0.125 1.25-0.14 0.057-0.286 0.088-0.438 0.094-5.131-0.849-9.35 0.713-12.656 4.688-2.779 3.889-3.32 8.077-1.625 12.563 2.096 4.565 5.648 7.138 10.656 7.719 4.652 0.229 8.391-1.49 11.219-5.156 2.128-3.044 2.846-6.398 2.156-10.063 0.093-0.63 0.448-0.849 1.063-0.656 0.073 0.073 0.146 0.146 0.219 0.219 1.069 5.544-0.504 10.179-4.719 13.906-3.934 3.041-8.309 3.895-13.125 2.563-4.573-1.573-7.646-4.646-9.219-9.219-1.333-4.816-0.478-9.191 2.563-13.125 2.512-2.928 5.69-4.616 9.531-5.063z"></path>
<path fill="#000" opacity="0.962" d="M25.656 1.969c0.209-0.010 0.418 0 0.625 0.031 0.18 0.078 0.295 0.214 0.344 0.406 0.031 0.958 0.042 1.916 0.031 2.875 0.959-0.010 1.917 0 2.875 0.031 0.325 0.098 0.471 0.317 0.438 0.656 0.034 0.339-0.112 0.558-0.438 0.656-0.958 0.031-1.916 0.042-2.875 0.031 0.010 0.959 0 1.917-0.031 2.875-0.098 0.325-0.317 0.471-0.656 0.438-0.339 0.034-0.558-0.112-0.656-0.438-0.031-0.958-0.042-1.916-0.031-2.875-0.959 0.010-1.917 0-2.875-0.031-0.325-0.098-0.471-0.317-0.438-0.656-0.034-0.339 0.112-0.558 0.438-0.656 0.958-0.031 1.916-0.042 2.875-0.031-0.010-0.959 0-1.917 0.031-2.875 0.060-0.195 0.175-0.341 0.344-0.438z"></path>
<path fill="#000" opacity="0.964" d="M10.469 8.594c0.404-0.033 0.685 0.134 0.844 0.5 0.042 4.583 0.042 9.167 0 13.75-0.377 0.615-0.815 0.656-1.313 0.125-0.042-4.667-0.042-9.333 0-14 0.133-0.166 0.29-0.291 0.469-0.375z"></path>
<path fill="#000" opacity="0.947" d="M18.219 8.594c2.111-0.044 3.538 0.915 4.281 2.875 0.145 0.554 0.187 1.117 0.125 1.688-0.294 1.238-0.794 2.383-1.5 3.438-1.263 1.889-2.67 3.67-4.219 5.344 1.792 0.021 3.583 0.042 5.375 0.063 0.373 0.262 0.467 0.606 0.281 1.031-0.108 0.132-0.244 0.226-0.406 0.281-2.354 0.042-4.708 0.042-7.063 0-0.544-0.297-0.638-0.703-0.281-1.219 2.276-2.283 4.234-4.804 5.875-7.563 0.393-0.679 0.581-1.408 0.563-2.188-0.28-1.446-1.155-2.238-2.625-2.375-1.137 0.1-1.95 0.662-2.438 1.688-0.115 0.431-0.198 0.868-0.25 1.313-0.357 0.438-0.753 0.48-1.188 0.125-0.117-0.169-0.169-0.357-0.156-0.563 0.136-1.728 0.99-2.947 2.563-3.656 0.355-0.125 0.709-0.219 1.063-0.281z"></path>
</svg>
