<!-- Generated by IcoMoon.io -->
<svg version="1.1" xmlns="http://www.w3.org/2000/svg" width="32" height="32" viewBox="0 0 32 32">
<title>16</title>
<path fill="#000" opacity="0.947" d="M14.656 1.969c0.875-0.010 1.75 0 2.625 0.031 0.547 0.048 1.089 0.132 1.625 0.25 0.526 0.364 0.568 0.781 0.125 1.25-0.14 0.057-0.286 0.088-0.438 0.094-5.131-0.849-9.35 0.713-12.656 4.688-2.779 3.889-3.32 8.077-1.625 12.563 2.096 4.565 5.648 7.138 10.656 7.719 4.652 0.229 8.391-1.49 11.219-5.156 2.128-3.044 2.846-6.398 2.156-10.063 0.093-0.63 0.448-0.849 1.063-0.656 0.073 0.073 0.146 0.146 0.219 0.219 1.069 5.544-0.504 10.179-4.719 13.906-3.934 3.041-8.309 3.895-13.125 2.563-4.573-1.573-7.646-4.646-9.219-9.219-1.333-4.816-0.478-9.191 2.563-13.125 2.512-2.928 5.69-4.616 9.531-5.063zM17.719 16.656c0.605-0.010 1.209 0 1.813 0.031 0.969 0.177 1.542 0.75 1.719 1.719 0.055 0.711 0.034 1.42-0.063 2.125-0.213 0.609-0.619 1.036-1.219 1.281-3.239 0.677-4.521-0.604-3.844-3.844 0.301-0.729 0.833-1.167 1.594-1.313z"></path>
<path fill="#000" opacity="0.962" d="M25.656 1.969c0.209-0.010 0.418 0 0.625 0.031 0.18 0.078 0.295 0.214 0.344 0.406 0.031 0.958 0.042 1.916 0.031 2.875 0.959-0.010 1.917 0 2.875 0.031 0.325 0.098 0.471 0.317 0.438 0.656 0.034 0.339-0.112 0.558-0.438 0.656-0.958 0.031-1.916 0.042-2.875 0.031 0.010 0.959 0 1.917-0.031 2.875-0.098 0.325-0.317 0.471-0.656 0.438-0.339 0.034-0.558-0.112-0.656-0.438-0.031-0.958-0.042-1.916-0.031-2.875-0.959 0.010-1.917 0-2.875-0.031-0.325-0.098-0.471-0.317-0.438-0.656-0.034-0.339 0.112-0.558 0.438-0.656 0.958-0.031 1.916-0.042 2.875-0.031-0.010-0.959 0-1.917 0.031-2.875 0.060-0.195 0.175-0.341 0.344-0.438z"></path>
<path fill="#000" opacity="0.964" d="M10.469 8.594c0.404-0.033 0.685 0.134 0.844 0.5 0.042 4.583 0.042 9.167 0 13.75-0.377 0.615-0.815 0.656-1.313 0.125-0.042-4.667-0.042-9.333 0-14 0.133-0.166 0.29-0.291 0.469-0.375z"></path>
<path fill="#000" opacity="0.953" d="M17.594 8.594c0.688-0.010 1.375 0 2.063 0.031 1.995 0.37 2.985 1.568 2.969 3.594-0.296 0.476-0.681 0.559-1.156 0.25-0.068-0.073-0.12-0.156-0.156-0.25-0.143-1.611-1.029-2.361-2.656-2.25-0.866-0.099-1.605 0.151-2.219 0.75-0.28 0.368-0.426 0.785-0.438 1.25-0.042 1.313-0.042 2.625 0 3.938 0.436-0.327 0.925-0.525 1.469-0.594 3.906-0.469 5.625 1.25 5.156 5.156-0.337 1.629-1.327 2.577-2.969 2.844-0.688 0.042-1.375 0.042-2.063 0-1.698-0.281-2.688-1.271-2.969-2.969-0.042-2.917-0.042-5.833 0-8.75 0.292-1.699 1.282-2.699 2.969-3zM17.719 16.656c-0.761 0.146-1.292 0.583-1.594 1.313-0.677 3.24 0.604 4.521 3.844 3.844 0.599-0.245 1.006-0.672 1.219-1.281 0.097-0.705 0.118-1.414 0.063-2.125-0.177-0.969-0.75-1.542-1.719-1.719-0.604-0.031-1.208-0.042-1.813-0.031z"></path>
</svg>
