current by IcoMoon.io -->
<svg version="1.1" xmlns="http://www.w3.org/2000/svg" width="32" height="32" viewBox="0 0 32 32">
<title>18</title>
<path fill="current" opacity="0.705" d="M11.75 1.75c2.5 0 5 0 7.5 0 0.139 0.923-0.194 1.59-1 2-8.658-0.683-13.658 3.317-15 12 1.571 9.492 7.071 13.409 16.5 11.75 6.263-2.78 8.93-7.53 8-14.25 0.41-0.806 1.077-1.139 2-1 0.599 12.651-5.401 18.401-18 17.25-8.126-3.164-11.376-9.081-9.75-17.75 1.676-4.925 4.926-8.258 9.75-10zM16.75 16.75c3.494-0.426 4.661 0.991 3.5 4.25-2.121 1.108-3.621 0.525-4.5-1.75 0.337-0.848 0.671-1.681 1-2.5z"></path>
<path fill="current" opacity="0.669" d="M24.75 1.75c0.667 0 1.333 0 2 0 0 1 0 2 0 3 1 0 2 0 3 0 0 0.667 0 1.333 0 2-1 0-2 0-3 0 0 1 0 2 0 3-0.667 0-1.333 0-2 0 0-1 0-2 0-3-1 0-2 0-3 0 0-0.667 0-1.333 0-2 1 0 2 0 3 0 0-1 0-2 0-3z"></path>
<path fill="current" opacity="0.851" d="M9.75 8.25c0.5 0 1 0 1.5 0 0 5 0 10 0 15-0.5 0-1 0-1.5 0 0-5 0-10 0-15z"></path>
<path fill="current" opacity="0.723" d="M16.25 8.25c5.852-0.466 7.685 2.034 5.5 7.5 2.192 5.543 0.358 7.96-5.5 7.25-0.917-0.25-1.5-0.833-1.75-1.75-0.495-1.972-0.245-3.805 0.75-5.5-0.995-1.695-1.245-3.528-0.75-5.5 0.345-0.925 0.928-1.592 1.75-2zM17.75 9.75c3.129 0.489 3.796 2.072 2 4.75-2.28 0.825-3.613 0.075-4-2.25 0.33-1.157 0.997-1.991 2-2.5zM16.75 16.75c-0.329 0.819-0.663 1.652-1 2.5 0.879 2.275 2.379 2.858 4.5 1.75 1.161-3.259-0.006-4.676-3.5-4.25z"></path>
</svg>
