<svg aria-hidden="true" style="position: absolute; width: 0; height: 0; overflow: hidden;" version="1.1" xmlns="http://www.w3.org/2000/svg" xmlns:xlink="http://www.w3.org/1999/xlink">
<defs>
<symbol id="icon-0" viewBox="0 0 32 32">
<path fill="#000" style="fill: var(--color1, #000)" opacity="0.947" d="M14.656 1.969c0.875-0.010 1.75 0 2.625 0.031 0.547 0.048 1.089 0.132 1.625 0.25 0.526 0.364 0.568 0.781 0.125 1.25-0.14 0.057-0.286 0.088-0.438 0.094-5.131-0.849-9.35 0.713-12.656 4.688-2.779 3.889-3.32 8.077-1.625 12.563 2.096 4.565 5.648 7.138 10.656 7.719 4.652 0.229 8.391-1.49 11.219-5.156 2.128-3.044 2.846-6.398 2.156-10.063 0.093-0.63 0.448-0.849 1.063-0.656 0.073 0.073 0.146 0.146 0.219 0.219 1.069 5.544-0.504 10.179-4.719 13.906-3.934 3.041-8.309 3.895-13.125 2.563-4.573-1.573-7.646-4.646-9.219-9.219-1.333-4.816-0.478-9.191 2.563-13.125 2.512-2.928 5.69-4.616 9.531-5.063z"></path>
<path fill="#000" style="fill: var(--color1, #000)" opacity="0.962" d="M25.656 1.969c0.209-0.010 0.418 0 0.625 0.031 0.18 0.078 0.295 0.214 0.344 0.406 0.031 0.958 0.042 1.916 0.031 2.875 0.959-0.010 1.917 0 2.875 0.031 0.325 0.098 0.471 0.317 0.438 0.656 0.034 0.339-0.112 0.558-0.438 0.656-0.958 0.031-1.916 0.042-2.875 0.031 0.010 0.959 0 1.917-0.031 2.875-0.098 0.325-0.317 0.471-0.656 0.438-0.339 0.034-0.558-0.112-0.656-0.438-0.031-0.958-0.042-1.916-0.031-2.875-0.959 0.010-1.917 0-2.875-0.031-0.325-0.098-0.471-0.317-0.438-0.656-0.034-0.339 0.112-0.558 0.438-0.656 0.958-0.031 1.916-0.042 2.875-0.031-0.010-0.959 0-1.917 0.031-2.875 0.060-0.195 0.175-0.341 0.344-0.438z"></path>
<path fill="#000" style="fill: var(--color1, #000)" opacity="0.958" d="M14.906 8.594c-1.515 0.296-2.483 1.191-2.906 2.688-0.042 3.125-0.042 6.25 0 9.375 0.412 1.495 1.381 2.381 2.906 2.656 0.708 0.042 1.417 0.042 2.125 0 1.527-0.277 2.496-1.163 2.906-2.656 0.042-3.125 0.042-6.25 0-9.375-0.41-1.493-1.379-2.379-2.906-2.656-0.708-0.031-1.416-0.042-2.125-0.031zM15.281 9.969c0.743-0.048 1.473 0.025 2.188 0.219 0.576 0.305 0.941 0.774 1.094 1.406 0.042 2.917 0.042 5.833 0 8.75-0.276 0.964-0.911 1.495-1.906 1.594-0.743 0.079-1.472 0.017-2.188-0.188-0.576-0.305-0.941-0.774-1.094-1.406-0.042-2.917-0.042-5.833 0-8.75 0.286-0.964 0.922-1.506 1.906-1.625z"></path>
</symbol>
<symbol id="icon-12" viewBox="0 0 32 32">
<path fill="#000" style="fill: var(--color1, #000)" opacity="0.947" d="M14.656 1.969c0.875-0.010 1.75 0 2.625 0.031 0.547 0.048 1.089 0.132 1.625 0.25 0.526 0.364 0.568 0.781 0.125 1.25-0.14 0.057-0.286 0.088-0.438 0.094-5.131-0.849-9.35 0.713-12.656 4.688-2.779 3.889-3.32 8.077-1.625 12.563 2.096 4.565 5.648 7.138 10.656 7.719 4.652 0.229 8.391-1.49 11.219-5.156 2.128-3.044 2.846-6.398 2.156-10.063 0.093-0.63 0.448-0.849 1.063-0.656 0.073 0.073 0.146 0.146 0.219 0.219 1.069 5.544-0.504 10.179-4.719 13.906-3.934 3.041-8.309 3.895-13.125 2.563-4.573-1.573-7.646-4.646-9.219-9.219-1.333-4.816-0.478-9.191 2.563-13.125 2.512-2.928 5.69-4.616 9.531-5.063z"></path>
<path fill="#000" style="fill: var(--color1, #000)" opacity="0.962" d="M25.656 1.969c0.209-0.010 0.418 0 0.625 0.031 0.18 0.078 0.295 0.214 0.344 0.406 0.031 0.958 0.042 1.916 0.031 2.875 0.959-0.010 1.917 0 2.875 0.031 0.325 0.098 0.471 0.317 0.438 0.656 0.034 0.339-0.112 0.558-0.438 0.656-0.958 0.031-1.916 0.042-2.875 0.031 0.010 0.959 0 1.917-0.031 2.875-0.098 0.325-0.317 0.471-0.656 0.438-0.339 0.034-0.558-0.112-0.656-0.438-0.031-0.958-0.042-1.916-0.031-2.875-0.959 0.010-1.917 0-2.875-0.031-0.325-0.098-0.471-0.317-0.438-0.656-0.034-0.339 0.112-0.558 0.438-0.656 0.958-0.031 1.916-0.042 2.875-0.031-0.010-0.959 0-1.917 0.031-2.875 0.060-0.195 0.175-0.341 0.344-0.438z"></path>
<path fill="#000" style="fill: var(--color1, #000)" opacity="0.964" d="M10.469 8.594c0.404-0.033 0.685 0.134 0.844 0.5 0.042 4.583 0.042 9.167 0 13.75-0.377 0.615-0.815 0.656-1.313 0.125-0.042-4.667-0.042-9.333 0-14 0.133-0.166 0.29-0.291 0.469-0.375z"></path>
<path fill="#000" style="fill: var(--color1, #000)" opacity="0.947" d="M18.219 8.594c2.111-0.044 3.538 0.915 4.281 2.875 0.145 0.554 0.187 1.117 0.125 1.688-0.294 1.238-0.794 2.383-1.5 3.438-1.263 1.889-2.67 3.67-4.219 5.344 1.792 0.021 3.583 0.042 5.375 0.063 0.373 0.262 0.467 0.606 0.281 1.031-0.108 0.132-0.244 0.226-0.406 0.281-2.354 0.042-4.708 0.042-7.063 0-0.544-0.297-0.638-0.703-0.281-1.219 2.276-2.283 4.234-4.804 5.875-7.563 0.393-0.679 0.581-1.408 0.563-2.188-0.28-1.446-1.155-2.238-2.625-2.375-1.137 0.1-1.95 0.662-2.438 1.688-0.115 0.431-0.198 0.868-0.25 1.313-0.357 0.438-0.753 0.48-1.188 0.125-0.117-0.169-0.169-0.357-0.156-0.563 0.136-1.728 0.99-2.947 2.563-3.656 0.355-0.125 0.709-0.219 1.063-0.281z"></path>
</symbol>
<symbol id="icon-16" viewBox="0 0 32 32">
<path fill="#000" style="fill: var(--color1, #000)" opacity="0.947" d="M14.656 1.969c0.875-0.010 1.75 0 2.625 0.031 0.547 0.048 1.089 0.132 1.625 0.25 0.526 0.364 0.568 0.781 0.125 1.25-0.14 0.057-0.286 0.088-0.438 0.094-5.131-0.849-9.35 0.713-12.656 4.688-2.779 3.889-3.32 8.077-1.625 12.563 2.096 4.565 5.648 7.138 10.656 7.719 4.652 0.229 8.391-1.49 11.219-5.156 2.128-3.044 2.846-6.398 2.156-10.063 0.093-0.63 0.448-0.849 1.063-0.656 0.073 0.073 0.146 0.146 0.219 0.219 1.069 5.544-0.504 10.179-4.719 13.906-3.934 3.041-8.309 3.895-13.125 2.563-4.573-1.573-7.646-4.646-9.219-9.219-1.333-4.816-0.478-9.191 2.563-13.125 2.512-2.928 5.69-4.616 9.531-5.063zM17.719 16.656c0.605-0.010 1.209 0 1.813 0.031 0.969 0.177 1.542 0.75 1.719 1.719 0.055 0.711 0.034 1.42-0.063 2.125-0.213 0.609-0.619 1.036-1.219 1.281-3.239 0.677-4.521-0.604-3.844-3.844 0.301-0.729 0.833-1.167 1.594-1.313z"></path>
<path fill="#000" style="fill: var(--color1, #000)" opacity="0.962" d="M25.656 1.969c0.209-0.010 0.418 0 0.625 0.031 0.18 0.078 0.295 0.214 0.344 0.406 0.031 0.958 0.042 1.916 0.031 2.875 0.959-0.010 1.917 0 2.875 0.031 0.325 0.098 0.471 0.317 0.438 0.656 0.034 0.339-0.112 0.558-0.438 0.656-0.958 0.031-1.916 0.042-2.875 0.031 0.010 0.959 0 1.917-0.031 2.875-0.098 0.325-0.317 0.471-0.656 0.438-0.339 0.034-0.558-0.112-0.656-0.438-0.031-0.958-0.042-1.916-0.031-2.875-0.959 0.010-1.917 0-2.875-0.031-0.325-0.098-0.471-0.317-0.438-0.656-0.034-0.339 0.112-0.558 0.438-0.656 0.958-0.031 1.916-0.042 2.875-0.031-0.010-0.959 0-1.917 0.031-2.875 0.060-0.195 0.175-0.341 0.344-0.438z"></path>
<path fill="#000" style="fill: var(--color1, #000)" opacity="0.964" d="M10.469 8.594c0.404-0.033 0.685 0.134 0.844 0.5 0.042 4.583 0.042 9.167 0 13.75-0.377 0.615-0.815 0.656-1.313 0.125-0.042-4.667-0.042-9.333 0-14 0.133-0.166 0.29-0.291 0.469-0.375z"></path>
<path fill="#000" style="fill: var(--color1, #000)" opacity="0.953" d="M17.594 8.594c0.688-0.010 1.375 0 2.063 0.031 1.995 0.37 2.985 1.568 2.969 3.594-0.296 0.476-0.681 0.559-1.156 0.25-0.068-0.073-0.12-0.156-0.156-0.25-0.143-1.611-1.029-2.361-2.656-2.25-0.866-0.099-1.605 0.151-2.219 0.75-0.28 0.368-0.426 0.785-0.438 1.25-0.042 1.313-0.042 2.625 0 3.938 0.436-0.327 0.925-0.525 1.469-0.594 3.906-0.469 5.625 1.25 5.156 5.156-0.337 1.629-1.327 2.577-2.969 2.844-0.688 0.042-1.375 0.042-2.063 0-1.698-0.281-2.688-1.271-2.969-2.969-0.042-2.917-0.042-5.833 0-8.75 0.292-1.699 1.282-2.699 2.969-3zM17.719 16.656c-0.761 0.146-1.292 0.583-1.594 1.313-0.677 3.24 0.604 4.521 3.844 3.844 0.599-0.245 1.006-0.672 1.219-1.281 0.097-0.705 0.118-1.414 0.063-2.125-0.177-0.969-0.75-1.542-1.719-1.719-0.604-0.031-1.208-0.042-1.813-0.031z"></path>
</symbol>
<symbol id="icon-18" viewBox="0 0 32 32">
<path fill="#000" style="fill: var(--color1, #000)" opacity="0.705" d="M11.75 1.75c2.5 0 5 0 7.5 0 0.139 0.923-0.194 1.59-1 2-8.658-0.683-13.658 3.317-15 12 1.571 9.492 7.071 13.409 16.5 11.75 6.263-2.78 8.93-7.53 8-14.25 0.41-0.806 1.077-1.139 2-1 0.599 12.651-5.401 18.401-18 17.25-8.126-3.164-11.376-9.081-9.75-17.75 1.676-4.925 4.926-8.258 9.75-10zM16.75 16.75c3.494-0.426 4.661 0.991 3.5 4.25-2.121 1.108-3.621 0.525-4.5-1.75 0.337-0.848 0.671-1.681 1-2.5z"></path>
<path fill="#000" style="fill: var(--color1, #000)" opacity="0.669" d="M24.75 1.75c0.667 0 1.333 0 2 0 0 1 0 2 0 3 1 0 2 0 3 0 0 0.667 0 1.333 0 2-1 0-2 0-3 0 0 1 0 2 0 3-0.667 0-1.333 0-2 0 0-1 0-2 0-3-1 0-2 0-3 0 0-0.667 0-1.333 0-2 1 0 2 0 3 0 0-1 0-2 0-3z"></path>
<path fill="#000" style="fill: var(--color1, #000)" opacity="0.851" d="M9.75 8.25c0.5 0 1 0 1.5 0 0 5 0 10 0 15-0.5 0-1 0-1.5 0 0-5 0-10 0-15z"></path>
<path fill="#000" style="fill: var(--color1, #000)" opacity="0.723" d="M16.25 8.25c5.852-0.466 7.685 2.034 5.5 7.5 2.192 5.543 0.358 7.96-5.5 7.25-0.917-0.25-1.5-0.833-1.75-1.75-0.495-1.972-0.245-3.805 0.75-5.5-0.995-1.695-1.245-3.528-0.75-5.5 0.345-0.925 0.928-1.592 1.75-2zM17.75 9.75c3.129 0.489 3.796 2.072 2 4.75-2.28 0.825-3.613 0.075-4-2.25 0.33-1.157 0.997-1.991 2-2.5zM16.75 16.75c-0.329 0.819-0.663 1.652-1 2.5 0.879 2.275 2.379 2.858 4.5 1.75 1.161-3.259-0.006-4.676-3.5-4.25z"></path>
</symbol>
</defs>
</svg>
